# xmcd CD database file
#
# Track frame offsets:
#	150
#	17950
#	36475
#	54087
#	73087
#
# Disc length: 1210 seconds
#
# Revision: 0
# Processed by: cddbd v1.5.1PL2 Copyright (c) Steve Scherf et al.
# Submitted via: CDex 1.51
#
DISCID=4004b805
DTITLE=千葉美加 - あなたに会えたから
DYEAR=1900
DGENRE=ポップ (一般)
TTITLE0=あなたに会えたから
TTITLE1=彩蝶夢
TTITLE2=浪漫街頭
TTITLE3=雨個人的寂寞
TTITLE4=あなたに会えたから（北京語）
EXTD=
EXTT0=
EXTT1=
EXTT2=
EXTT3=
EXTT4=
PLAYORDER=
